<svg width="50" height="50" viewBox="0 0 50 50" fill="none" xmlns="http://www.w3.org/2000/svg">
<rect width="50" height="50" rx="25" fill="white"/>
<path fill-rule="evenodd" clip-rule="evenodd" d="M33.839 31.625C34.45 32.2344 34.45 33.2344 33.839 33.8438C33.2297 34.4532 32.2391 34.4532 31.6281 33.8438L25.0093 27.2188L18.3437 33.8905C17.7281 34.4999 16.7313 34.4999 16.1157 33.8905C15.5016 33.2655 15.5016 32.2656 16.1157 31.6563L22.7813 24.9844L16.1625 18.375C15.5516 17.7656 15.5516 16.7656 16.1625 16.1562C16.7703 15.5468 17.7609 15.5468 18.3719 16.1562L24.9907 22.7812L31.7062 16.0625C32.3219 15.4532 33.3172 15.4532 33.9328 16.0625C34.5468 16.6875 34.5468 17.6718 33.9328 18.2968L27.2187 25.0156L33.839 31.625ZM25 0C11.1922 0 0 11.1875 0 25C0 38.8125 11.1922 50 25 50C38.8078 50 50 38.8125 50 25C50 11.1875 38.8078 0 25 0Z" fill="black" fill-opacity="0.8"/>
</svg>
